PathFileType	4	(X/Y/Z)	Kaydara	
DataRate	CameraRate	NumFrames	NumMarkers	Units	OrigDataRate	OrigDataStartFrame	OrigNumFrames	
60.00	60.00	4	74	mm	60.00	740	195	
Frame#	Time	Y_rasi			Y_rpsi			Y_lpsi			Y_fneck			Y_bneck			Y_fhead			Y_rhead			Y_rshld			Y_relbtop			Y_relbext			Y_relblow			Y_rwrext			Y_rwrtop			Y_rwrlow			Y_lshld			Y_lelbext			Y_lelblow			Y_lelbtop			Y_lwrext			Y_lwrtop			Y_lwrlow			Y_rtopleg			Y_ltopleg			Y_rkneefr			Y_rkneebk			Y_rkneeis			Y_lkneefr			Y_lknssbk			Y_lkneeis			Y_rankfr			Y_rankis			Y_rankbk			Y_lankfr			Y_lankbk			Y_lankis			Y_lhead			Y_lasi			D_rpsi			D_lpsi			D_fneck			D_bneck			D_fhead			D_rhead			D_lhead			D_rshld			D_relbtop			D_relbext			D_relblow			D_rwrext			D_rwrtop			D_rwrlow			D_lshld			D_lelbext			D_lelblow			D_lelbtop			D_lwrext			D_lwrtop			D_lwrlow			D_rtopleg			D_ltopleg			D_rkneefr			D_rkneebk			D_rkneeis			D_lkneefr			D_lknssbk			D_lkneeis			D_rankfr			D_rankis			D_rankbk			D_lankfr			D_lankbk			D_lankis			D_lasi			D_rasi			
		X1	Y1	Z1	X2	Y2	Z2	X3	Y3	Z3	X4	Y4	Z4	X5	Y5	Z5	X6	Y6	Z6	X7	Y7	Z7	X8	Y8	Z8	X9	Y9	Z9	X10	Y10	Z10	X11	Y11	Z11	X12	Y12	Z12	X13	Y13	Z13	X14	Y14	Z14	X15	Y15	Z15	X16	Y16	Z16	X17	Y17	Z17	X18	Y18	Z18	X19	Y19	Z19	X20	Y20	Z20	X21	Y21	Z21	X22	Y22	Z22	X23	Y23	Z23	X24	Y24	Z24	X25	Y25	Z25	X26	Y26	Z26	X27	Y27	Z27	X28	Y28	Z28	X29	Y29	Z29	X30	Y30	Z30	X31	Y31	Z31	X32	Y32	Z32	X33	Y33	Z33	X34	Y34	Z34	X35	Y35	Z35	X36	Y36	Z36	X37	Y37	Z37	X38	Y38	Z38	X39	Y39	Z39	X40	Y40	Z40	X41	Y41	Z41	X42	Y42	Z42	X43	Y43	Z43	X44	Y44	Z44	X45	Y45	Z45	X46	Y46	Z46	X47	Y47	Z47	X48	Y48	Z48	X49	Y49	Z49	X50	Y50	Z50	X51	Y51	Z51	X52	Y52	Z52	X53	Y53	Z53	X54	Y54	Z54	X55	Y55	Z55	X56	Y56	Z56	X57	Y57	Z57	X58	Y58	Z58	X59	Y59	Z59	X60	Y60	Z60	X61	Y61	Z61	X62	Y62	Z62	X63	Y63	Z63	X64	Y64	Z64	X65	Y65	Z65	X66	Y66	Z66	X67	Y67	Z67	X68	Y68	Z68	X69	Y69	Z69	X70	Y70	Z70	X71	Y71	Z71	X72	Y72	Z72	X73	Y73	Z73	X74	Y74	Z74	

74	12.317	-557.52602	1086.59058	-140.59323	-561.13270	1070.92125	-321.78780	-332.69844	1061.83983	-262.87342	-481.16646	1435.24765	-167.41434	-406.48354	1483.75778	-252.87682	-523.15838	1637.08588	-100.36999	-506.93504	1576.13953	-268.77300	-628.28045	1415.25528	-289.02014	-661.31760	1097.70607	-315.86597	-670.39429	1115.09178	-372.23503	-602.29443	1096.79565	-374.56783	-690.29526	832.79037	-324.13727	-722.45636	845.28442	-299.44851	-705.01465	855.97099	-259.24423	-257.05811	1387.74643	-131.73269	-185.47293	1080.94948	-197.20203	-239.32577	1069.51012	-219.86897	-225.82806	1084.19571	-150.79363	-227.41795	825.50278	-139.89322	-216.82800	834.50531	-97.54217	-259.90957	849.51645	-84.59769	-633.13652	914.71664	-279.06576	-290.91812	906.60942	-155.11653	-645.21233	409.34254	-270.08503	-624.82635	454.16389	-345.13168	-549.83391	416.96899	-261.43665	-334.18159	475.87368	-122.77674	-273.96297	494.24080	-218.89889	-393.44673	468.21281	-197.58915	-632.27013	139.99043	-326.55781	-561.76262	133.56418	-339.55391	-603.74847	136.85379	-392.91733	-275.20441	132.48876	-172.25508	-259.56921	129.61435	-240.17723	-332.21844	125.76181	-207.99843	-378.63144	1572.57874	-185.40407	-403.56407	1075.70206	-101.30586	-955.65498	1176.73508	594.80476	-1090.64125	1188.79906	478.31306	-926.72081	1613.45383	465.26199	-1028.22388	1657.48505	529.09077	-878.93837	1804.32556	351.37291	-937.94388	1808.99002	519.92859	-1043.78769	1797.14569	410.09422	-846.26541	1568.04260	610.08820	-812.52304	1197.60056	594.85352	-765.75294	1210.36842	641.83769	-835.71152	1194.77829	677.79366	-721.47270	923.96706	577.60612	-698.19878	938.47359	545.48042	-731.23283	946.78398	510.81154	-1157.00829	1555.83221	384.78481	-1143.54004	1184.43680	317.53864	-1121.78467	1164.20456	389.67281	-1080.87364	1196.03188	321.99242	-1062.89246	945.00290	276.06390	-1037.65549	966.48590	245.21557	-1001.42288	970.14626	274.17501	-842.72018	1039.98680	596.65901	-1099.53934	1031.23741	357.88345	-825.58121	560.67822	485.83336	-841.20316	561.63689	597.93938	-938.00232	547.27642	517.72533	-1004.70322	469.53190	375.02033	-1097.87193	518.14850	419.06265	-1013.86299	502.27245	486.84757	-834.84062	193.91769	553.17394	-910.32501	186.87170	535.68703	-886.68259	185.24906	618.17554	-1054.75586	161.64198	411.51772	-1077.42516	154.48168	487.20901	-992.87415	164.74203	448.31142	-986.76956	1192.62802	348.14762	-830.25742	1184.38499	478.31203 
75	12.333	-557.15588	1086.51230	-140.28167	-560.90191	1070.88333	-321.45870	-332.44198	1061.80153	-262.70124	-480.74337	1435.24170	-167.15916	-406.19438	1483.68286	-252.75059	-522.39014	1637.05963	-99.92430	-506.49483	1576.16791	-268.32958	-627.91702	1415.25543	-288.53043	-661.10954	1097.74155	-315.38950	-670.09857	1115.10452	-371.72050	-601.98448	1096.87172	-374.16363	-689.68811	832.67677	-324.17580	-721.81923	845.01274	-299.39753	-704.08241	855.61272	-259.26378	-256.57856	1387.73468	-131.57230	-185.06395	1080.65933	-196.12572	-238.94808	1069.18129	-218.79837	-225.98143	1084.08424	-149.73494	-228.50014	825.94231	-135.80136	-218.17696	835.39879	-93.29146	-260.48031	850.50888	-78.58965	-632.76619	914.60930	-278.66594	-290.30907	906.62354	-155.08983	-645.13145	409.28997	-269.69639	-624.71378	454.14516	-344.77234	-549.75159	416.91025	-261.20335	-334.33689	475.80276	-122.45638	-273.66316	494.27410	-218.94754	-393.23174	468.23048	-197.51162	-632.24506	139.98048	-326.45695	-561.76750	133.53531	-339.37981	-603.70281	136.89031	-392.80800	-275.12785	132.45123	-172.25292	-259.51475	129.59114	-240.17076	-332.15157	125.78274	-208.00209	-378.16471	1572.54974	-185.17637	-403.33179	1075.62645	-101.28686	-955.29335	1176.58569	594.75559	-1090.84961	1189.02779	478.75233	-926.10703	1613.63144	465.28465	-1027.27928	1657.44736	529.99142	-880.32822	1804.81445	350.59734	-936.49956	1808.81317	520.23125	-1044.02527	1797.45178	412.29446	-845.06004	1567.85187	609.81224	-811.71883	1197.28104	594.25556	-764.82529	1210.17227	641.24451	-834.16412	1194.49310	677.21962	-720.91309	923.55194	577.38953	-697.83745	937.94899	545.22457	-731.03317	946.15295	510.69141	-1156.82922	1556.03210	385.77663	-1143.68011	1184.75098	318.21156	-1121.77910	1164.37592	390.21660	-1080.97572	1196.27251	322.47601	-1062.89345	945.31410	276.28874	-1037.78801	966.93993	245.43732	-1001.46820	970.51865	274.12796	-842.13478	1039.91188	596.34487	-1099.59839	1031.23909	358.29216	-825.90843	560.55481	486.20312	-841.34949	561.57536	598.50090	-938.24715	547.26212	518.48923	-1004.62372	469.52343	374.91219	-1097.75223	518.12366	419.17664	-1013.72726	502.23495	486.83586	-834.88792	193.95151	553.32706	-910.44579	186.80187	536.02966	-886.43845	185.07732	618.26958	-1054.72588	161.65051	411.54697	-1077.35214	154.51406	487.31079	-992.84042	164.72202	448.32073	-986.75621	1192.60445	348.27484	-829.87427	1184.23981	477.81525 
76	12.350	-556.79020	1086.50276	-139.99798	-560.66753	1070.86838	-321.17901	-332.21512	1061.75888	-262.56990	-480.26867	1435.16586	-166.77578	-405.86159	1483.63785	-252.43456	-521.69277	1637.03720	-99.64933	-506.13670	1576.12213	-268.05189	-627.60120	1415.26535	-288.12637	-660.61996	1097.66937	-314.99390	-669.85985	1115.11971	-371.23493	-601.74416	1096.93825	-373.84026	-689.10667	832.56966	-324.09302	-721.22574	844.83772	-299.20088	-703.34671	855.48180	-259.15215	-256.05606	1387.72324	-131.62173	-184.72216	1080.36705	-195.18185	-238.51931	1068.84361	-217.79621	-225.54092	1084.49303	-148.67845	-229.48809	826.45744	-131.94864	-219.16517	836.43715	-89.63691	-261.29032	851.97479	-74.55414	-632.54017	914.55673	-278.29464	-289.89941	906.65794	-154.97167	-645.07950	409.26437	-269.40075	-624.58191	454.12369	-344.50867	-549.61632	416.85818	-260.89565	-333.76945	476.12869	-122.35354	-273.49665	494.27528	-218.78141	-393.03604	468.26298	-197.42786	-632.22076	139.98522	-326.35975	-561.77456	133.50245	-339.28703	-603.68916	136.95498	-392.72774	-275.05604	132.42826	-172.24329	-259.43838	129.59185	-240.16800	-332.08256	125.79093	-207.96427	-377.54940	1572.47757	-184.92662	-402.97466	1075.55717	-101.31423	-954.58755	1176.58737	594.71317	-1089.85748	1189.01093	478.48450	-925.74738	1613.98254	465.28500	-1026.37039	1657.40158	530.77175	-881.63818	1805.45029	350.05814	-934.82803	1808.53119	520.57835	-1044.24698	1797.71194	414.25262	-843.96149	1567.64206	609.45099	-811.14166	1196.99524	594.24789	-763.88672	1209.94591	640.68863	-832.88574	1194.32579	676.78146	-720.55527	923.25584	577.23389	-697.41478	937.46330	544.89601	-730.70396	945.57388	510.36598	-1156.57982	1556.30569	386.82240	-1144.01848	1184.96857	318.83238	-1122.15454	1164.68269	390.96069	-1081.35567	1196.47781	322.85316	-1063.17879	945.54276	276.50686	-1038.18642	967.23564	245.66107	-1001.84418	970.96992	274.38446	-841.47247	1039.82475	596.03626	-1099.65164	1031.24519	358.79772	-826.14326	560.45124	486.48621	-840.91415	561.62872	598.68275	-938.46565	547.29164	519.21379	-1004.60083	469.48589	374.90120	-1097.62833	518.09895	419.32808	-1013.52768	502.20402	486.86157	-834.79187	193.96791	553.37353	-910.37674	186.88084	536.21525	-886.35429	184.98690	618.46455	-1054.72084	161.64833	411.60469	-1077.27295	154.52906	487.36469	-992.82059	164.70396	448.31802	-986.88179	1192.62199	348.35629	-829.61510	1184.09607	477.50061 
77	12.367	-556.42048	1086.49673	-139.73852	-560.44811	1070.87051	-320.94086	-332.01180	1061.71242	-262.41276	-479.79649	1435.12344	-166.46204	-405.40184	1483.58871	-252.25481	-521.14281	1637.12189	-99.30943	-505.65178	1576.05438	-267.92816	-627.29179	1415.29114	-287.70197	-660.30327	1097.61620	-314.54803	-669.60464	1115.11391	-370.83668	-601.51691	1097.00546	-373.45802	-688.48015	832.49107	-323.88962	-720.73357	844.73671	-298.91485	-703.03909	855.48141	-258.82111	-255.69033	1387.73651	-131.41200	-184.41790	1080.10597	-194.29150	-238.21583	1068.48587	-216.87084	-225.21692	1084.74136	-147.69488	-230.51899	826.98341	-128.39345	-220.37647	837.35703	-85.97334	-262.58991	853.30101	-72.14990	-632.23755	914.48410	-278.03110	-289.61384	906.65779	-154.74493	-645.02060	409.25392	-269.19994	-624.49085	454.14200	-344.28692	-549.52522	416.84414	-260.58695	-333.80371	475.92484	-122.44259	-273.21066	494.31480	-218.71408	-392.83073	468.29445	-197.29221	-632.20985	140.00336	-326.30333	-561.71539	133.52957	-339.22646	-603.67664	136.99475	-392.65491	-274.98722	132.43304	-172.23730	-259.38196	129.57927	-240.14124	-332.06364	125.81636	-207.94689	-377.06810	1572.41669	-184.95003	-402.62341	1075.53513	-101.06997	-953.66570	1176.53061	594.52980	-1087.63992	1187.91031	477.69585	-925.22949	1614.24759	464.93271	-1025.29823	1657.34467	531.49475	-882.88887	1806.20636	349.54514	-933.57605	1808.26004	520.94734	-1044.50096	1797.90283	416.27914	-842.77863	1567.51221	608.99475	-809.98276	1196.70120	593.11726	-762.90886	1209.66263	639.95384	-831.90582	1194.12392	676.24397	-720.04562	922.83112	576.88316	-696.92062	936.94313	544.34021	-730.38788	945.14511	510.11860	-1156.35422	1556.48438	387.86171	-1144.54147	1185.19737	319.56493	-1122.16164	1164.59373	391.35216	-1081.80077	1196.64879	323.33889	-1063.79723	945.73898	276.74770	-1038.91174	967.48680	245.89914	-1002.41035	971.12640	274.47006	-840.43877	1039.80774	595.45830	-1099.83078	1031.25931	359.32060	-826.19453	560.42706	486.75468	-840.72449	561.65245	599.04064	-938.54469	547.42676	519.79805	-1004.58076	469.53854	374.86397	-1097.51625	518.09532	419.48524	-1013.39447	502.23000	486.91017	-834.76791	193.99176	553.44795	-910.36522	186.85423	536.47034	-886.24962	184.91856	618.63258	-1054.74686	161.66920	411.56540	-1077.12173	154.57759	487.41196	-992.77229	164.70829	448.32329	-987.05147	1192.65770	348.57510	-829.37836	1184.01672	477.21832 
